<svg xmlns="http://www.w3.org/2000/svg" width="21" height="15" fill="none" viewBox="0 0 21 15">
  <path fill="url(#a)" fill-opacity=".85" d="M18.618 7.155c-.363 0-.695-.09-.997-.269a1.997 1.997 0 0 1-.717-.72 1.953 1.953 0 0 1-.264-1.005c0-.358.088-.686.264-.985.177-.3.416-.54.717-.721.302-.182.634-.272.997-.272s.696.089.997.268c.302.179.542.418.721.717.179.299.269.63.269.993 0 .368-.09.703-.269 1.005-.179.301-.42.542-.72.72a1.918 1.918 0 0 1-.998.269Zm0-1.196a.76.76 0 0 0 .556-.234.768.768 0 0 0 .234-.564.747.747 0 0 0-.234-.552.766.766 0 0 0-.556-.23.747.747 0 0 0-.552.234.757.757 0 0 0-.23.548c0 .22.076.408.226.564a.743.743 0 0 0 .556.234Zm-7.852-1.994c-.364 0-.694-.09-.993-.269a2.05 2.05 0 0 1-.718-.717 1.912 1.912 0 0 1-.268-1c0-.363.09-.695.268-.994.18-.299.418-.538.718-.717.299-.179.63-.268.993-.268.368 0 .703.09 1.004.268.302.18.54.418.717.717.177.3.265.63.265.994 0 .368-.09.701-.269 1-.179.3-.419.538-.72.717a1.918 1.918 0 0 1-.997.269Zm0-1.197a.76.76 0 0 0 .556-.233.76.76 0 0 0 .234-.556.743.743 0 0 0-.234-.556.772.772 0 0 0-.556-.227.75.75 0 0 0-.549.234.75.75 0 0 0-.234.549c0 .214.076.4.227.555.15.156.336.234.556.234ZM2.92 7.155c-.363 0-.696-.09-.997-.269a2.03 2.03 0 0 1-.721-.72A1.932 1.932 0 0 1 .934 5.16c0-.363.09-.694.269-.993.179-.3.419-.538.72-.717.302-.179.635-.268.998-.268.362 0 .695.09.996.272.302.181.541.422.717.72.177.3.265.628.265.986 0 .368-.088.703-.265 1.005a1.998 1.998 0 0 1-.717.72 1.918 1.918 0 0 1-.996.269Zm0-1.196a.74.74 0 0 0 .555-.234.782.782 0 0 0 .227-.564.757.757 0 0 0-.23-.548.747.747 0 0 0-.552-.234c-.215 0-.4.077-.556.23a.747.747 0 0 0-.234.552c0 .22.078.408.234.564a.76.76 0 0 0 .556.234Zm14.785.69-2.431 1.495c-.246.154-.545.215-.898.184-.352-.03-.656-.215-.912-.552l-2.899-3.888 1.097-.468 2.646 3.55c.071.098.148.155.23.173.081.018.186-.014.314-.095l2.24-1.38.613.98ZM3.833 6.64l.614-.981L6.67 7.025c.139.086.251.12.338.1a.447.447 0 0 0 .245-.185l2.623-3.535 1.089.475-2.907 3.904c-.245.332-.541.514-.89.544-.347.03-.63-.023-.85-.16L3.833 6.64Zm12.907 5.63H4.793v-1.158H16.74v1.158Zm1.918-5.453-1.565 6.373c-.148.603-.392 1.056-.732 1.357-.34.302-.827.453-1.461.453H6.64c-.633 0-1.121-.15-1.464-.453-.342-.301-.588-.754-.736-1.357L2.874 6.817l1.082-.49 1.633 6.717c.133.532.478.798 1.035.798h8.283c.562 0 .907-.266 1.035-.798l1.641-6.717 1.074.49Z"/>
  <defs>
    <radialGradient id="a" cx="0" cy="0" r="1" gradientTransform="matrix(-9.00175 17.91667 -23.49499 -11.80442 10.77 7.5)" gradientUnits="userSpaceOnUse">
      <stop stop-color="gold"/>
      <stop offset="1" stop-opacity=".47"/>
    </radialGradient>
  </defs>
</svg>
