<svg xmlns="http://www.w3.org/2000/svg" width="10" height="18" fill="none" viewBox="0 0 10 18">
  <path fill="#fff" d="M10 1.052a.467.467 0 0 0-.133-.327.45.45 0 0 0-.322-.136H7.273a4.29 4.29 0 0 0-3.117 1.128 4.447 4.447 0 0 0-1.429 3.038v2.499H.455a.45.45 0 0 0-.322.135.467.467 0 0 0-.133.328v2.406c0 .123.048.24.133.328a.45.45 0 0 0 .322.135h2.272v6.202c0 .123.048.24.133.327a.45.45 0 0 0 .322.136h2.727a.45.45 0 0 0 .322-.136.467.467 0 0 0 .133-.327v-6.202h2.381a.45.45 0 0 0 .28-.093.464.464 0 0 0 .166-.25l.654-2.406a.471.471 0 0 0-.077-.4.456.456 0 0 0-.359-.183H6.364v-2.5a.932.932 0 0 1 .296-.595.9.9 0 0 1 .613-.237h2.272a.45.45 0 0 0 .322-.136A.467.467 0 0 0 10 3.46V1.052Z"/>
</svg>
