<svg width="20" height="21" viewBox="0 0 20 21" fill="none" xmlns="http://www.w3.org/2000/svg">
<path fill-rule="evenodd" clip-rule="evenodd" d="M20.0001 10.4373C20.0001 9.71374 19.9351 9.01801 19.8146 8.3501H10.2041V12.2972H15.6958C15.4592 13.5728 14.7403 14.6535 13.6596 15.377V17.9374H16.9574C18.8869 16.1609 20.0001 13.5449 20.0001 10.4373Z" fill="#4285F4"/>
<path fill-rule="evenodd" clip-rule="evenodd" d="M10.2028 20.4072C12.9579 20.4072 15.2677 19.4935 16.9561 17.935L13.6583 15.3747C12.7445 15.987 11.5757 16.3487 10.2028 16.3487C7.54506 16.3487 5.29551 14.5537 4.4931 12.1418H1.08398V14.7856C2.76303 18.1205 6.21389 20.4072 10.2028 20.4072Z" fill="#34A853"/>
<path fill-rule="evenodd" clip-rule="evenodd" d="M4.49446 12.1427C4.29038 11.5305 4.17442 10.8765 4.17442 10.2039C4.17442 9.53138 4.29038 8.87739 4.49446 8.26514V5.62134H1.08535C0.394251 6.9989 0 8.55735 0 10.2039C0 11.8505 0.394251 13.409 1.08535 14.7865L4.49446 12.1427Z" fill="#FBBC05"/>
<path fill-rule="evenodd" clip-rule="evenodd" d="M10.2028 4.05847C11.7009 4.05847 13.046 4.57331 14.1035 5.58445L17.0303 2.65772C15.2631 1.01114 12.9533 0 10.2028 0C6.21389 0 2.76303 2.28666 1.08398 5.62156L4.4931 8.26536C5.29551 5.85347 7.54506 4.05847 10.2028 4.05847Z" fill="#EA4335"/>
</svg>
