<?xml version="1.0" encoding="utf-8"?>

<!DOCTYPE svg PUBLIC "-//W3C//DTD SVG 1.1//EN" "http://www.w3.org/Graphics/SVG/1.1/DTD/svg11.dtd">
<svg fill="currentColor" version="1.1" id="Layer_1" xmlns="http://www.w3.org/2000/svg" xmlns:xlink="http://www.w3.org/1999/xlink"
	 width="800px" height="800px" viewBox="0 0 72 72" enable-background="new 0 0 72 72" xml:space="preserve">
<g>
	<g>
		<path d="M34.5,27.568c0,3.828-3.104,6.932-6.932,6.932H10.432c-3.828,0-6.932-3.104-6.932-6.932V10.432
			C3.5,6.604,6.604,3.5,10.432,3.5h17.137c3.828,0,6.932,3.104,6.932,6.932V27.568z M30.5,10.432c0-1.619-1.313-2.932-2.932-2.932
			H10.432C8.813,7.5,7.5,8.813,7.5,10.432v17.137c0,1.619,1.313,2.932,2.932,2.932h17.137c1.619,0,2.932-1.313,2.932-2.932V10.432z"
			/>
	</g>
	<g>
		<path d="M68.5,27.568c0,3.828-3.104,6.932-6.932,6.932H44.432c-3.828,0-6.932-3.104-6.932-6.932V10.432
			c0-3.828,3.104-6.932,6.932-6.932h17.137c3.828,0,6.932,3.104,6.932,6.932V27.568z M64.5,10.432c0-1.619-1.313-2.932-2.932-2.932
			H44.432c-1.619,0-2.932,1.313-2.932,2.932v17.137c0,1.619,1.313,2.932,2.932,2.932h17.137c1.619,0,2.932-1.313,2.932-2.932V10.432
			z"/>
	</g>
	<g>
		<path d="M34.5,61.568c0,3.828-3.104,6.932-6.932,6.932H10.432c-3.828,0-6.932-3.104-6.932-6.932V44.432
			c0-3.828,3.104-6.932,6.932-6.932h17.137c3.828,0,6.932,3.104,6.932,6.932V61.568z M30.5,44.432c0-1.619-1.313-2.932-2.932-2.932
			H10.432c-1.619,0-2.932,1.313-2.932,2.932v17.137c0,1.619,1.313,2.932,2.932,2.932h17.137c1.619,0,2.932-1.313,2.932-2.932V44.432
			z"/>
	</g>
	<g>
		<path d="M68.5,61.568c0,3.828-3.104,6.932-6.932,6.932H44.432c-3.828,0-6.932-3.104-6.932-6.932V44.432
			c0-3.828,3.104-6.932,6.932-6.932h17.137c3.828,0,6.932,3.104,6.932,6.932V61.568z M64.5,44.432c0-1.619-1.313-2.932-2.932-2.932
			H44.432c-1.619,0-2.932,1.313-2.932,2.932v17.137c0,1.619,1.313,2.932,2.932,2.932h17.137c1.619,0,2.932-1.313,2.932-2.932V44.432
			z"/>
	</g>
</g>
</svg>