<svg xmlns="http://www.w3.org/2000/svg" width="17" height="19" fill="none" viewBox="0 0 17 19">
  <path fill="#fff" d="M8.424.584C.612.584 0 1.222 0 9.374v.16c0 8.15.612 8.79 8.424 8.79h.152c7.812 0 8.424-.64 8.424-8.79v-.08c0-8.226-.617-8.87-8.5-8.87h-.076ZM6.8 2.358h3.4c4.73 0 5.1.386 5.1 5.322v3.547c0 4.936-.37 5.322-5.1 5.322H6.8c-4.73 0-5.1-.386-5.1-5.322V7.68c0-4.936.37-5.322 5.1-5.322Zm5.948 1.774c-.47.001-.85.4-.848.89.001.49.383.885.852.884.47-.002.85-.4.848-.89-.001-.49-.383-.886-.852-.884Zm-4.258.887c-2.347.006-4.246 1.996-4.24 4.445.006 2.449 1.913 4.43 4.26 4.424 2.347-.005 4.245-1.996 4.24-4.445-.005-2.449-1.913-4.43-4.26-4.424Zm.004 1.774c1.408-.004 2.553 1.185 2.556 2.654.003 1.47-1.136 2.664-2.544 2.667-1.408.004-2.553-1.185-2.556-2.654-.003-1.47 1.136-2.664 2.544-2.667Z"/>
</svg>
