<svg xmlns="http://www.w3.org/2000/svg" width="18" height="14" fill="none" viewBox="0 0 18 14">
  <path fill="#fff" d="M17.996 5.042a6.951 6.951 0 0 0-.744-3.377 2.387 2.387 0 0 0-1.407-.818A64.072 64.072 0 0 0 9.002.594a64.146 64.146 0 0 0-6.82.245 2.347 2.347 0 0 0-1.194.605c-.735.679-.817 1.84-.899 2.82a39.485 39.485 0 0 0 0 5.3c.024.552.106 1.1.245 1.635.099.413.298.795.58 1.112.334.33.758.552 1.22.637 1.762.218 3.538.308 5.314.27 2.862.041 5.372 0 8.34-.229.472-.08.909-.303 1.251-.637.23-.23.4-.51.499-.818a8.65 8.65 0 0 0 .425-2.78c.033-.458.033-3.222.033-3.712ZM7.154 9.244v-5.06l4.84 2.542c-1.357.752-3.148 1.603-4.84 2.518Z"/>
</svg>
