<?xml version="1.0" encoding="UTF-8"?>
<svg id="_Слой_1" data-name="Слой 1" xmlns="http://www.w3.org/2000/svg" viewBox="0 0 99.68 98">
  <path d="m52.43,54.54h-20.79v35.33c0,7.7-3.06,8.13-18.46,8.13-.32-1.8-1.26-4.43-2.22-6.23,2.85,0,5.49.11,7.6.11,5.9,0,6.43,0,6.43-2.01v-35.33H2.95v-6.44h22.05v-12.66h-14.14v-3.17c-1.9,2.01-3.9,4.01-6.01,5.91-1.06-1.58-3.27-3.9-4.85-4.85C11.6,23.31,19.93,10.13,24.37,0l8.75,1.37c-.21.73-.84,1.26-2.1,1.26,8.54,5.8,18.14,13.93,22.78,19.83l-4.84,4.85c-4.11-5.48-12.87-13.29-20.79-19.2-3.69,6.64-8.43,14.03-14.45,20.99h33.02v6.33h-15.09v12.66h20.79v6.44Zm-33.33,8.55c-.21.63-.84,1.05-2,.94-2.43,8.75-6.44,18.25-10.87,24.26-1.27-.95-3.59-2.43-5.17-3.17,4.32-5.59,8.01-14.98,10.23-24.26l7.81,2.22Zm25.11-2.64c3.69,6.64,7.49,15.29,8.75,20.78l-6.12,2.42c-1.26-5.48-4.85-14.34-8.44-21.09l5.81-2.1ZM91.24,7.6l4.33,1.37c-.21.63-.42,1.06-.84,1.48-2.75,23.74-8.76,42.72-17.31,57.49,5.59,10.44,12.87,18.78,22.26,24.26-1.69,1.37-3.91,4.01-5.17,5.81-8.86-5.69-15.82-13.61-21.41-23.31-6.97,10.01-15.19,17.72-24.47,23.31-1.06-1.69-3.17-4.43-4.75-5.81,9.71-5.38,18.35-13.71,25.42-24.89-6.54-14.24-10.66-31.65-13.5-51.16l6.43-.95c2.32,16.67,5.91,31.86,11.39,44.73,6.33-12.34,11.08-27.43,13.5-45.26h-35.33v-6.75h38.19l1.26-.31Z" fill="#2ecc71" stroke-width="0"/>
</svg>